<mxfile host="app.diagrams.net" modified="2022-05-03T06:34:51.764Z" agent="5.0 (Windows NT 10.0; Win64; x64) AppleWebKit/537.36 (KHTML, like Gecko) Chrome/100.0.4896.127 Safari/537.36" etag="jTqY2qxz-te_JTQPDGuI" version="17.5.0" type="github">
  <diagram id="Uj0icfuYa2xuuBtmjR30" name="第 1 页">
    <mxGraphModel dx="782" dy="436" grid="1" gridSize="10" guides="1" tooltips="1" connect="1" arrows="1" fold="1" page="1" pageScale="1" pageWidth="827" pageHeight="1169" math="0" shadow="0">
      <root>
        <mxCell id="0" />
        <mxCell id="1" parent="0" />
        <mxCell id="T2KJXxTKXxAA8IgT_8n6-1" value="" style="rounded=0;whiteSpace=wrap;html=1;fillColor=#d5e8d4;strokeColor=#82b366;" vertex="1" parent="1">
          <mxGeometry x="80" y="280" width="80" height="40" as="geometry" />
        </mxCell>
        <mxCell id="T2KJXxTKXxAA8IgT_8n6-26" style="edgeStyle=none;rounded=0;orthogonalLoop=1;jettySize=auto;html=1;entryX=0;entryY=1;entryDx=0;entryDy=0;exitX=1;exitY=1;exitDx=0;exitDy=0;" edge="1" parent="1" source="T2KJXxTKXxAA8IgT_8n6-7" target="T2KJXxTKXxAA8IgT_8n6-15">
          <mxGeometry relative="1" as="geometry">
            <mxPoint x="290" y="270" as="sourcePoint" />
          </mxGeometry>
        </mxCell>
        <mxCell id="T2KJXxTKXxAA8IgT_8n6-2" value="" style="rounded=0;whiteSpace=wrap;html=1;fillColor=#e1d5e7;strokeColor=#9673a6;" vertex="1" parent="1">
          <mxGeometry x="200" y="270" width="80" height="10" as="geometry" />
        </mxCell>
        <mxCell id="T2KJXxTKXxAA8IgT_8n6-3" value="" style="rounded=0;whiteSpace=wrap;html=1;fillColor=#e1d5e7;strokeColor=#9673a6;" vertex="1" parent="1">
          <mxGeometry x="200" y="280" width="80" height="40" as="geometry" />
        </mxCell>
        <mxCell id="T2KJXxTKXxAA8IgT_8n6-7" value="" style="rounded=0;whiteSpace=wrap;html=1;fillColor=#e1d5e7;strokeColor=#9673a6;" vertex="1" parent="1">
          <mxGeometry x="200" y="210" width="80" height="60" as="geometry" />
        </mxCell>
        <mxCell id="T2KJXxTKXxAA8IgT_8n6-8" value="" style="rounded=0;whiteSpace=wrap;html=1;fillColor=#e1d5e7;strokeColor=#9673a6;" vertex="1" parent="1">
          <mxGeometry x="200" y="160" width="80" height="50" as="geometry" />
        </mxCell>
        <mxCell id="T2KJXxTKXxAA8IgT_8n6-25" style="edgeStyle=none;rounded=0;orthogonalLoop=1;jettySize=auto;html=1;entryX=0;entryY=0;entryDx=0;entryDy=0;exitX=1;exitY=0;exitDx=0;exitDy=0;" edge="1" parent="1" source="T2KJXxTKXxAA8IgT_8n6-9" target="T2KJXxTKXxAA8IgT_8n6-15">
          <mxGeometry relative="1" as="geometry" />
        </mxCell>
        <mxCell id="T2KJXxTKXxAA8IgT_8n6-9" value="" style="rounded=0;whiteSpace=wrap;html=1;fillColor=#e1d5e7;strokeColor=#9673a6;" vertex="1" parent="1">
          <mxGeometry x="200" y="210" width="80" height="10" as="geometry" />
        </mxCell>
        <mxCell id="T2KJXxTKXxAA8IgT_8n6-11" value="" style="rounded=0;whiteSpace=wrap;html=1;fillColor=#e1d5e7;strokeColor=#9673a6;" vertex="1" parent="1">
          <mxGeometry x="408" y="310" width="80" height="10" as="geometry" />
        </mxCell>
        <mxCell id="T2KJXxTKXxAA8IgT_8n6-13" value="" style="rounded=0;whiteSpace=wrap;html=1;fillColor=#e1d5e7;strokeColor=#9673a6;" vertex="1" parent="1">
          <mxGeometry x="408" y="280" width="80" height="10" as="geometry" />
        </mxCell>
        <mxCell id="T2KJXxTKXxAA8IgT_8n6-14" value="" style="rounded=0;whiteSpace=wrap;html=1;fillColor=#e1d5e7;strokeColor=#9673a6;" vertex="1" parent="1">
          <mxGeometry x="408" y="290" width="80" height="10" as="geometry" />
        </mxCell>
        <mxCell id="T2KJXxTKXxAA8IgT_8n6-15" value="" style="rounded=0;whiteSpace=wrap;html=1;fillColor=#e1d5e7;strokeColor=#9673a6;" vertex="1" parent="1">
          <mxGeometry x="408" y="300" width="80" height="10" as="geometry" />
        </mxCell>
        <mxCell id="T2KJXxTKXxAA8IgT_8n6-24" style="edgeStyle=none;rounded=0;orthogonalLoop=1;jettySize=auto;html=1;entryX=0;entryY=0;entryDx=0;entryDy=0;exitX=1;exitY=0;exitDx=0;exitDy=0;" edge="1" parent="1" source="T2KJXxTKXxAA8IgT_8n6-17" target="T2KJXxTKXxAA8IgT_8n6-14">
          <mxGeometry relative="1" as="geometry" />
        </mxCell>
        <mxCell id="T2KJXxTKXxAA8IgT_8n6-17" value="" style="rounded=0;whiteSpace=wrap;html=1;fillColor=#e1d5e7;strokeColor=#9673a6;" vertex="1" parent="1">
          <mxGeometry x="200" y="150" width="80" height="10" as="geometry" />
        </mxCell>
        <mxCell id="T2KJXxTKXxAA8IgT_8n6-18" value="" style="rounded=0;whiteSpace=wrap;html=1;fillColor=#e1d5e7;strokeColor=#9673a6;" vertex="1" parent="1">
          <mxGeometry x="200" y="90" width="80" height="60" as="geometry" />
        </mxCell>
        <mxCell id="T2KJXxTKXxAA8IgT_8n6-22" style="rounded=0;orthogonalLoop=1;jettySize=auto;html=1;entryX=0;entryY=0;entryDx=0;entryDy=0;exitX=1;exitY=0;exitDx=0;exitDy=0;" edge="1" parent="1" source="T2KJXxTKXxAA8IgT_8n6-19" target="T2KJXxTKXxAA8IgT_8n6-13">
          <mxGeometry relative="1" as="geometry" />
        </mxCell>
        <mxCell id="T2KJXxTKXxAA8IgT_8n6-19" value="" style="rounded=0;whiteSpace=wrap;html=1;fillColor=#e1d5e7;strokeColor=#9673a6;" vertex="1" parent="1">
          <mxGeometry x="200" y="80" width="80" height="10" as="geometry" />
        </mxCell>
        <mxCell id="T2KJXxTKXxAA8IgT_8n6-27" value="" style="rounded=0;whiteSpace=wrap;html=1;fillColor=#d5e8d4;strokeColor=#82b366;" vertex="1" parent="1">
          <mxGeometry x="520" y="280" width="80" height="40" as="geometry" />
        </mxCell>
        <mxCell id="T2KJXxTKXxAA8IgT_8n6-28" value="&lt;b&gt;&lt;font style=&quot;font-size: 16px&quot;&gt;原始数据集&lt;/font&gt;&lt;/b&gt;" style="text;html=1;strokeColor=none;fillColor=none;align=center;verticalAlign=middle;whiteSpace=wrap;rounded=0;" vertex="1" parent="1">
          <mxGeometry x="110" y="340" width="140" height="30" as="geometry" />
        </mxCell>
        <mxCell id="T2KJXxTKXxAA8IgT_8n6-30" value="&lt;b&gt;&lt;font style=&quot;font-size: 20px&quot;&gt;欠采样&lt;/font&gt;&lt;/b&gt;" style="text;html=1;strokeColor=none;fillColor=none;align=center;verticalAlign=middle;whiteSpace=wrap;rounded=0;fontSize=16;" vertex="1" parent="1">
          <mxGeometry x="320" y="30" width="100" height="40" as="geometry" />
        </mxCell>
      </root>
    </mxGraphModel>
  </diagram>
</mxfile>
